<mxfile host="app.diagrams.net" modified="2024-05-29T04:19:09.090Z" agent="Mozilla/5.0 (X11; Ubuntu; Linux x86_64; rv:125.0) Gecko/20100101 Firefox/125.0" etag="Hx_Ek4vT6-M11Ns_Uufc" version="24.4.9" type="github">
  <diagram name="Page-1" id="2EptJulOqEAfh9DK2MC_">
    <mxGraphModel dx="1996" dy="1251" grid="0" gridSize="10" guides="1" tooltips="1" connect="1" arrows="1" fold="1" page="1" pageScale="1" pageWidth="3300" pageHeight="4681" background="#000000" math="0" shadow="0">
      <root>
        <mxCell id="0" />
        <mxCell id="1" parent="0" />
        <mxCell id="3CH6JMSQk755Utm1HqRy-1" value="&lt;font style=&quot;font-size: 24px;&quot;&gt;RESNET&lt;/font&gt;" style="rounded=1;whiteSpace=wrap;html=1;" vertex="1" parent="1">
          <mxGeometry x="54" y="248" width="321" height="76" as="geometry" />
        </mxCell>
        <mxCell id="3CH6JMSQk755Utm1HqRy-2" value="&lt;font style=&quot;font-size: 48px;&quot;&gt;PROCESS 1&lt;/font&gt;" style="rounded=1;whiteSpace=wrap;html=1;" vertex="1" parent="1">
          <mxGeometry x="24" y="111" width="728" height="100" as="geometry" />
        </mxCell>
        <mxCell id="3CH6JMSQk755Utm1HqRy-29" value="" style="endArrow=classic;html=1;rounded=0;strokeColor=#FFFFFF;exitX=1;exitY=0.5;exitDx=0;exitDy=0;strokeWidth=5;" edge="1" parent="1" source="3CH6JMSQk755Utm1HqRy-22">
          <mxGeometry width="50" height="50" relative="1" as="geometry">
            <mxPoint x="399" y="530" as="sourcePoint" />
            <mxPoint x="459" y="485" as="targetPoint" />
            <Array as="points">
              <mxPoint x="429" y="485" />
            </Array>
          </mxGeometry>
        </mxCell>
        <mxCell id="3CH6JMSQk755Utm1HqRy-30" value="&lt;font style=&quot;font-size: 24px;&quot;&gt;RESNET&lt;/font&gt;" style="whiteSpace=wrap;html=1;aspect=fixed;" vertex="1" parent="1">
          <mxGeometry x="490" y="389" width="196" height="196" as="geometry" />
        </mxCell>
        <mxCell id="3CH6JMSQk755Utm1HqRy-32" value="&lt;font style=&quot;font-size: 24px;&quot;&gt;FEATURE VECTOR&lt;br&gt;&lt;/font&gt;" style="rounded=0;whiteSpace=wrap;html=1;" vertex="1" parent="1">
          <mxGeometry x="866" y="389" width="151" height="224" as="geometry" />
        </mxCell>
        <mxCell id="3CH6JMSQk755Utm1HqRy-33" value="" style="endArrow=classic;html=1;rounded=0;strokeColor=#FFFFFF;strokeWidth=5;" edge="1" parent="1">
          <mxGeometry width="50" height="50" relative="1" as="geometry">
            <mxPoint x="697" y="483" as="sourcePoint" />
            <mxPoint x="839" y="483" as="targetPoint" />
          </mxGeometry>
        </mxCell>
        <mxCell id="3CH6JMSQk755Utm1HqRy-34" value="&lt;font style=&quot;font-size: 72px;&quot;&gt;&lt;font style=&quot;font-size: 48px;&quot;&gt;PROCESS 2&lt;/font&gt;&lt;br&gt;&lt;/font&gt;" style="rounded=1;whiteSpace=wrap;html=1;" vertex="1" parent="1">
          <mxGeometry x="41" y="777" width="728" height="100" as="geometry" />
        </mxCell>
        <mxCell id="3CH6JMSQk755Utm1HqRy-35" value="&lt;font style=&quot;font-size: 24px;&quot;&gt;FEATURE VECTOR&lt;br&gt;&lt;/font&gt;" style="rounded=0;whiteSpace=wrap;html=1;" vertex="1" parent="1">
          <mxGeometry x="114.5" y="1037" width="151" height="224" as="geometry" />
        </mxCell>
        <mxCell id="3CH6JMSQk755Utm1HqRy-36" value="" style="endArrow=classic;html=1;rounded=0;strokeColor=#FFFFFF;exitX=1;exitY=0.5;exitDx=0;exitDy=0;strokeWidth=5;" edge="1" parent="1">
          <mxGeometry width="50" height="50" relative="1" as="geometry">
            <mxPoint x="290" y="1148.0900000000001" as="sourcePoint" />
            <mxPoint x="449" y="1148.0900000000001" as="targetPoint" />
            <Array as="points">
              <mxPoint x="419" y="1148.0900000000001" />
            </Array>
          </mxGeometry>
        </mxCell>
        <mxCell id="3CH6JMSQk755Utm1HqRy-37" value="&lt;font style=&quot;font-size: 24px;&quot;&gt;LSTM&lt;/font&gt;" style="rounded=1;whiteSpace=wrap;html=1;" vertex="1" parent="1">
          <mxGeometry x="455" y="1086.5" width="273" height="125" as="geometry" />
        </mxCell>
        <mxCell id="3CH6JMSQk755Utm1HqRy-38" value="" style="endArrow=classic;html=1;rounded=0;strokeColor=#FFFFFF;exitX=1;exitY=0.5;exitDx=0;exitDy=0;strokeWidth=5;" edge="1" parent="1">
          <mxGeometry width="50" height="50" relative="1" as="geometry">
            <mxPoint x="742" y="1148.0900000000001" as="sourcePoint" />
            <mxPoint x="901" y="1148.0900000000001" as="targetPoint" />
            <Array as="points">
              <mxPoint x="871" y="1148.0900000000001" />
            </Array>
          </mxGeometry>
        </mxCell>
        <mxCell id="3CH6JMSQk755Utm1HqRy-40" value="&lt;font style=&quot;font-size: 24px;&quot;&gt;Image&lt;/font&gt;" style="rounded=0;whiteSpace=wrap;html=1;" vertex="1" parent="1">
          <mxGeometry x="109" y="594" width="120" height="60" as="geometry" />
        </mxCell>
        <mxCell id="3CH6JMSQk755Utm1HqRy-46" value="" style="group" vertex="1" connectable="0" parent="1">
          <mxGeometry x="70" y="405" width="240" height="169" as="geometry" />
        </mxCell>
        <mxCell id="3CH6JMSQk755Utm1HqRy-22" value="" style="shape=parallelogram;perimeter=parallelogramPerimeter;whiteSpace=wrap;html=1;fixedSize=1;strokeColor=#FFFFFF;movable=1;resizable=1;rotatable=1;deletable=1;editable=1;locked=0;connectable=1;" vertex="1" parent="3CH6JMSQk755Utm1HqRy-46">
          <mxGeometry y="5" width="240" height="150" as="geometry" />
        </mxCell>
        <mxCell id="3CH6JMSQk755Utm1HqRy-23" value="" style="endArrow=none;dashed=1;html=1;dashPattern=1 3;strokeWidth=2;rounded=0;" edge="1" parent="3CH6JMSQk755Utm1HqRy-46">
          <mxGeometry width="50" height="50" relative="1" as="geometry">
            <mxPoint x="13" y="50" as="sourcePoint" />
            <mxPoint x="63" as="targetPoint" />
          </mxGeometry>
        </mxCell>
        <mxCell id="3CH6JMSQk755Utm1HqRy-24" value="" style="endArrow=none;dashed=1;html=1;dashPattern=1 3;strokeWidth=2;rounded=0;exitX=0.058;exitY=1.053;exitDx=0;exitDy=0;exitPerimeter=0;" edge="1" parent="3CH6JMSQk755Utm1HqRy-46">
          <mxGeometry width="50" height="50" relative="1" as="geometry">
            <mxPoint x="12.000000000000071" y="88.95000000000005" as="sourcePoint" />
            <mxPoint x="90" y="5" as="targetPoint" />
            <Array as="points" />
          </mxGeometry>
        </mxCell>
        <mxCell id="3CH6JMSQk755Utm1HqRy-25" value="" style="endArrow=none;dashed=1;html=1;dashPattern=1 3;strokeWidth=2;rounded=0;" edge="1" parent="3CH6JMSQk755Utm1HqRy-46">
          <mxGeometry width="50" height="50" relative="1" as="geometry">
            <mxPoint y="132.5" as="sourcePoint" />
            <mxPoint x="140" y="1" as="targetPoint" />
            <Array as="points" />
          </mxGeometry>
        </mxCell>
        <mxCell id="3CH6JMSQk755Utm1HqRy-26" value="" style="endArrow=none;dashed=1;html=1;rounded=0;entryX=0.75;entryY=0;entryDx=0;entryDy=0;" edge="1" parent="3CH6JMSQk755Utm1HqRy-46" target="3CH6JMSQk755Utm1HqRy-22">
          <mxGeometry width="50" height="50" relative="1" as="geometry">
            <mxPoint x="29" y="152" as="sourcePoint" />
            <mxPoint x="79" y="102" as="targetPoint" />
          </mxGeometry>
        </mxCell>
        <mxCell id="3CH6JMSQk755Utm1HqRy-27" value="" style="endArrow=none;dashed=1;html=1;dashPattern=1 3;strokeWidth=2;rounded=0;entryX=0.942;entryY=-0.04;entryDx=0;entryDy=0;entryPerimeter=0;" edge="1" parent="3CH6JMSQk755Utm1HqRy-46" target="3CH6JMSQk755Utm1HqRy-22">
          <mxGeometry width="50" height="50" relative="1" as="geometry">
            <mxPoint x="74" y="169" as="sourcePoint" />
            <mxPoint x="137" y="108" as="targetPoint" />
          </mxGeometry>
        </mxCell>
        <mxCell id="3CH6JMSQk755Utm1HqRy-28" value="" style="endArrow=none;dashed=1;html=1;dashPattern=1 3;strokeWidth=2;rounded=0;" edge="1" parent="3CH6JMSQk755Utm1HqRy-46">
          <mxGeometry width="50" height="50" relative="1" as="geometry">
            <mxPoint x="158" y="147" as="sourcePoint" />
            <mxPoint x="229" y="64" as="targetPoint" />
          </mxGeometry>
        </mxCell>
        <mxCell id="3CH6JMSQk755Utm1HqRy-48" value="" style="group" vertex="1" connectable="0" parent="1">
          <mxGeometry x="911" y="1070" width="240" height="169" as="geometry" />
        </mxCell>
        <mxCell id="3CH6JMSQk755Utm1HqRy-49" value="" style="shape=parallelogram;perimeter=parallelogramPerimeter;whiteSpace=wrap;html=1;fixedSize=1;strokeColor=#FFFFFF;movable=1;resizable=1;rotatable=1;deletable=1;editable=1;locked=0;connectable=1;" vertex="1" parent="3CH6JMSQk755Utm1HqRy-48">
          <mxGeometry y="5" width="240" height="150" as="geometry" />
        </mxCell>
        <mxCell id="3CH6JMSQk755Utm1HqRy-50" value="" style="endArrow=none;dashed=1;html=1;dashPattern=1 3;strokeWidth=2;rounded=0;" edge="1" parent="3CH6JMSQk755Utm1HqRy-48">
          <mxGeometry width="50" height="50" relative="1" as="geometry">
            <mxPoint x="13" y="50" as="sourcePoint" />
            <mxPoint x="63" as="targetPoint" />
          </mxGeometry>
        </mxCell>
        <mxCell id="3CH6JMSQk755Utm1HqRy-51" value="" style="endArrow=none;dashed=1;html=1;dashPattern=1 3;strokeWidth=2;rounded=0;exitX=0.058;exitY=1.053;exitDx=0;exitDy=0;exitPerimeter=0;" edge="1" parent="3CH6JMSQk755Utm1HqRy-48">
          <mxGeometry width="50" height="50" relative="1" as="geometry">
            <mxPoint x="12.000000000000071" y="88.95000000000005" as="sourcePoint" />
            <mxPoint x="90" y="5" as="targetPoint" />
            <Array as="points" />
          </mxGeometry>
        </mxCell>
        <mxCell id="3CH6JMSQk755Utm1HqRy-52" value="" style="endArrow=none;dashed=1;html=1;dashPattern=1 3;strokeWidth=2;rounded=0;" edge="1" parent="3CH6JMSQk755Utm1HqRy-48">
          <mxGeometry width="50" height="50" relative="1" as="geometry">
            <mxPoint y="132.5" as="sourcePoint" />
            <mxPoint x="140" y="1" as="targetPoint" />
            <Array as="points" />
          </mxGeometry>
        </mxCell>
        <mxCell id="3CH6JMSQk755Utm1HqRy-53" value="" style="endArrow=none;dashed=1;html=1;rounded=0;entryX=0.75;entryY=0;entryDx=0;entryDy=0;" edge="1" parent="3CH6JMSQk755Utm1HqRy-48" target="3CH6JMSQk755Utm1HqRy-49">
          <mxGeometry width="50" height="50" relative="1" as="geometry">
            <mxPoint x="29" y="152" as="sourcePoint" />
            <mxPoint x="79" y="102" as="targetPoint" />
          </mxGeometry>
        </mxCell>
        <mxCell id="3CH6JMSQk755Utm1HqRy-54" value="" style="endArrow=none;dashed=1;html=1;dashPattern=1 3;strokeWidth=2;rounded=0;entryX=0.942;entryY=-0.04;entryDx=0;entryDy=0;entryPerimeter=0;" edge="1" parent="3CH6JMSQk755Utm1HqRy-48" target="3CH6JMSQk755Utm1HqRy-49">
          <mxGeometry width="50" height="50" relative="1" as="geometry">
            <mxPoint x="74" y="169" as="sourcePoint" />
            <mxPoint x="137" y="108" as="targetPoint" />
          </mxGeometry>
        </mxCell>
        <mxCell id="3CH6JMSQk755Utm1HqRy-55" value="" style="endArrow=none;dashed=1;html=1;dashPattern=1 3;strokeWidth=2;rounded=0;" edge="1" parent="3CH6JMSQk755Utm1HqRy-48">
          <mxGeometry width="50" height="50" relative="1" as="geometry">
            <mxPoint x="158" y="147" as="sourcePoint" />
            <mxPoint x="229" y="64" as="targetPoint" />
          </mxGeometry>
        </mxCell>
        <mxCell id="3CH6JMSQk755Utm1HqRy-57" value="" style="endArrow=none;dashed=1;html=1;rounded=0;" edge="1" parent="3CH6JMSQk755Utm1HqRy-48">
          <mxGeometry width="50" height="50" relative="1" as="geometry">
            <mxPoint x="237" y="115" as="sourcePoint" />
            <mxPoint x="128" y="6" as="targetPoint" />
          </mxGeometry>
        </mxCell>
        <mxCell id="3CH6JMSQk755Utm1HqRy-58" value="" style="endArrow=none;dashed=1;html=1;rounded=0;entryX=1;entryY=1;entryDx=0;entryDy=0;" edge="1" parent="3CH6JMSQk755Utm1HqRy-48" target="3CH6JMSQk755Utm1HqRy-49">
          <mxGeometry width="50" height="50" relative="1" as="geometry">
            <mxPoint x="44" y="3" as="sourcePoint" />
            <mxPoint x="134" y="79" as="targetPoint" />
          </mxGeometry>
        </mxCell>
        <mxCell id="3CH6JMSQk755Utm1HqRy-59" value="" style="endArrow=none;dashed=1;html=1;rounded=0;" edge="1" parent="3CH6JMSQk755Utm1HqRy-48">
          <mxGeometry width="50" height="50" relative="1" as="geometry">
            <mxPoint x="138" y="170" as="sourcePoint" />
            <mxPoint x="18" y="35" as="targetPoint" />
          </mxGeometry>
        </mxCell>
        <mxCell id="3CH6JMSQk755Utm1HqRy-60" value="" style="endArrow=none;dashed=1;html=1;rounded=0;entryX=0.334;entryY=1.002;entryDx=0;entryDy=0;entryPerimeter=0;" edge="1" parent="3CH6JMSQk755Utm1HqRy-48" target="3CH6JMSQk755Utm1HqRy-49">
          <mxGeometry width="50" height="50" relative="1" as="geometry">
            <mxPoint y="70" as="sourcePoint" />
            <mxPoint x="93" y="110" as="targetPoint" />
          </mxGeometry>
        </mxCell>
      </root>
    </mxGraphModel>
  </diagram>
</mxfile>
